<svg width="27" height="35" viewBox="0 0 27 35" fill="none" xmlns="http://www.w3.org/2000/svg">
<path d="M13.125 0C20.3625 0 26.25 5.88813 26.25 13.125C26.25 22.8078 14.1404 34.3164 13.6248 34.802C13.4839 34.9338 13.3044 35 13.125 35C12.9456 35 12.7661 34.9338 12.6251 34.802C12.1096 34.3164 0 22.8078 0 13.125C0 5.88813 5.88745 0 13.125 0ZM13.125 20.4167C17.1454 20.4167 20.4167 17.1454 20.4167 13.125C20.4167 9.10458 17.1454 5.83331 13.125 5.83331C9.10465 5.83331 5.83331 9.10465 5.83331 13.125C5.83331 17.1454 9.10458 20.4167 13.125 20.4167Z" fill="#03BAAF"/>
</svg>
